<svg xmlns="http://www.w3.org/2000/svg" width="390" height="244" viewBox="0 0 390 244" role="img" aria-labelledby="title"><title id="title">Primary language distribution</title><rect x=".5" y=".5" width="389" height="243" rx="10" fill="#0d1117" stroke="#30363d"/><g font-family="-apple-system, BlinkMacSystemFont, Segoe UI, Helvetica, Arial, sans-serif"><text x="24" y="33" font-size="11" fill="#919baa" letter-spacing="1.5" font-weight="600">LANGUAGES IN MY REPOS</text><rect x="24" y="54" width="152" height="8" fill="#4493f8"/><rect x="176" y="54" width="38" height="8" fill="#3fb9a0"/><rect x="214" y="54" width="38" height="8" fill="#ad8aff"/><rect x="252" y="54" width="38" height="8" fill="#d49a40"/><rect x="290" y="54" width="38" height="8" fill="#ea7c92"/><rect x="328" y="54" width="38" height="8" fill="#8b949e"/><circle cx="29" cy="82" r="4" fill="#4493f8"/><text x="42" y="86" font-size="12" fill="#f0f6fc" >Python</text><text x="366" y="86" font-size="12" fill="#919baa" text-anchor="end">4 repos</text><circle cx="29" cy="103" r="4" fill="#3fb9a0"/><text x="42" y="107" font-size="12" fill="#f0f6fc" >Astro</text><text x="366" y="107" font-size="12" fill="#919baa" text-anchor="end">1 repo</text><circle cx="29" cy="124" r="4" fill="#ad8aff"/><text x="42" y="128" font-size="12" fill="#f0f6fc" >HTML</text><text x="366" y="128" font-size="12" fill="#919baa" text-anchor="end">1 repo</text><circle cx="29" cy="145" r="4" fill="#d49a40"/><text x="42" y="149" font-size="12" fill="#f0f6fc" >Makefile</text><text x="366" y="149" font-size="12" fill="#919baa" text-anchor="end">1 repo</text><circle cx="29" cy="166" r="4" fill="#ea7c92"/><text x="42" y="170" font-size="12" fill="#f0f6fc" >MATLAB</text><text x="366" y="170" font-size="12" fill="#919baa" text-anchor="end">1 repo</text><circle cx="29" cy="187" r="4" fill="#8b949e"/><text x="42" y="191" font-size="12" fill="#f0f6fc" >Not detected</text><text x="366" y="191" font-size="12" fill="#919baa" text-anchor="end">1 repo</text><text x="24" y="224" font-size="11" fill="#919baa" >By primary language, not code volume or skill.</text></g></svg>
